<?xml version="1.0" encoding="UTF-8"?>
<svg xmlns="http://www.w3.org/2000/svg" xmlns:xlink="http://www.w3.org/1999/xlink" viewBox="0 0 128 128" width="128px" height="128px">
<g id="surface160128265">
<path style=" stroke:none;fill-rule:nonzero;fill:rgb(100%,100%,100%);fill-opacity:1;" d="M 60 8 C 31.328125 8 8 31.328125 8 60 C 8 88.671875 31.328125 112 60 112 C 88.671875 112 112 88.671875 112 60 C 112 31.328125 88.671875 8 60 8 Z M 60 16 C 84.347656 16 104 35.652344 104 60 C 104 82.128906 87.742188 100.328125 66.5 103.46875 L 66.5 72.71875 L 78.921875 72.71875 L 80.875 60.109375 L 66.5 60.109375 L 66.5 53.203125 C 66.5 47.964844 68.207031 43.3125 73.109375 43.3125 L 80.984375 43.3125 L 80.984375 32.296875 C 79.601562 32.113281 76.675781 31.703125 71.140625 31.703125 C 59.589844 31.703125 52.8125 37.808594 52.8125 51.703125 L 52.8125 60.09375 L 40.9375 60.09375 L 40.9375 72.71875 L 52.828125 72.71875 L 52.828125 103.359375 C 31.917969 99.9375 16 81.898438 16 60 C 16 35.652344 35.652344 16 60 16 Z M 60 16 "/>
</g>
</svg>
