<?xml version="1.0" encoding="utf-8"?>
<!-- Generator: Adobe Illustrator 22.1.0, SVG Export Plug-In . SVG Version: 6.00 Build 0)  -->
<svg version="1.1" id="Layer_1" xmlns="http://www.w3.org/2000/svg" xmlns:xlink="http://www.w3.org/1999/xlink" x="0px" y="0px"
	 viewBox="0 0 50 33" style="enable-background:new 0 0 50 33;" xml:space="preserve">
<style type="text/css">
	.st0{fill:#FFFFFF;}
</style>
<g>
	<g transform="translate(-821.000000, -4268.000000)">
		<g transform="translate(360.000000, 3485.000000)">
			<g transform="translate(200.000000, 486.000000)">
				<path class="st0" d="M306,303.1h-12.5v-3H306V303.1z M281.2,312c1.9,0.5,3.3,1.5,4.2,2.9s1.4,3,1.4,5c0,1.6-0.3,2.9-0.9,4.1
					c-0.5,1.1-1.4,2-2.5,2.7c-0.9,0.7-2.1,1.2-3.5,1.6c-1.1,0.3-2.4,0.5-4,0.5H261v-31.2h14.5c0.9,0,2.3,0.2,4,0.6
					c1,0.2,2,0.7,3,1.4c0.9,0.5,1.6,1.3,2.1,2.3c0.5,1,0.7,2.2,0.7,3.6c0,1.6-0.4,2.9-1.1,3.9S282.5,311.4,281.2,312z M267.4,310.1
					h7.1c1.3,0,2.3-0.2,3-0.7c0.8-0.5,1.2-1.4,1.2-2.7c0-0.7-0.1-1.3-0.4-1.8s-0.6-0.8-1.1-1.1c-0.5-0.3-0.9-0.5-1.4-0.6
					c-0.7-0.2-1.3-0.2-1.8-0.2h-6.7V310.1z M280,319.5c0-1.6-0.4-2.7-1.3-3.4c-0.9-0.6-2-0.9-3.5-0.9h-7.7v8.6h7.5
					c0.5,0,1.2-0.1,2-0.2c0.6-0.2,1.2-0.4,1.6-0.6s0.8-0.7,1.1-1.3C279.9,321,280,320.3,280,319.5z M310.9,319.1h-16.1
					c0,1.9,0.5,3.3,1.5,4.3c0.9,0.9,2.3,1.3,4,1.3c1.2,0,2.2-0.3,3.2-0.9c0.9-0.7,1.5-1.4,1.6-2.1h5.4c-0.8,2.7-2.1,4.7-4,5.9
					c-1.9,1.2-4,1.9-6.4,1.9c-1.7,0-3.3-0.3-4.7-0.8s-2.6-1.4-3.6-2.5c-1-1-1.8-2.3-2.2-3.8c-0.5-1.4-0.8-3-0.8-4.7s0.3-3.3,0.8-4.7
					s1.3-2.7,2.3-3.8c1-1,2.2-1.8,3.5-2.5c1.4-0.6,3-0.9,4.7-0.9c1.9,0,3.5,0.4,4.9,1.1s2.6,1.7,3.5,3c0.9,1.2,1.5,2.6,2,4.3
					C311,315.8,311.1,317.5,310.9,319.1z M304.8,315.1c-0.2-1.4-0.6-2.6-1.4-3.5c-0.7-0.8-1.8-1.2-3.4-1.2c-1,0-1.8,0.2-2.5,0.5
					s-1.2,0.8-1.6,1.2s-0.7,1-0.8,1.5c-0.2,0.5-0.4,1-0.4,1.4H304.8z"/>
			</g>
		</g>
	</g>
</g>
</svg>
