<?xml version="1.0" encoding="UTF-8"?>
<svg width="37px" height="37px" viewBox="0 0 37 37" version="1.1" xmlns="http://www.w3.org/2000/svg" xmlns:xlink="http://www.w3.org/1999/xlink">
    <g stroke="none" stroke-width="1" fill="none" fill-rule="evenodd">
        <g transform="translate(-931.000000, -4263.000000)" fill="#FFFFFF" fill-rule="nonzero">
            <g transform="translate(360.000000, 3485.000000)">
                <g transform="translate(200.000000, 486.000000)">
                    <path class="linkedin" d="M399.101562,313.765625 C399.101562,312.505202 398.872398,311.574222 398.414062,310.972656 C397.955727,310.371091 397.09636,310.070312 395.835938,310.070312 C394.289055,310.070312 393.200524,310.528641 392.570312,311.445312 C391.940101,312.361984 391.625,313.651033 391.625,315.3125 L391.625,327.859375 C391.625,328.145835 391.539063,328.374999 391.367188,328.546875 C391.195312,328.718751 390.966147,328.804688 390.679688,328.804688 L384.148438,328.804688 C383.91927,328.804688 383.704428,328.718751 383.503906,328.546875 C383.303384,328.374999 383.203125,328.145835 383.203125,327.859375 L383.203125,304.65625 C383.203125,304.427082 383.303384,304.212241 383.503906,304.011719 C383.704428,303.811197 383.91927,303.710938 384.148438,303.710938 L390.507812,303.710938 C390.73698,303.710938 390.923176,303.768229 391.066406,303.882812 C391.209636,303.997396 391.309896,304.16927 391.367188,304.398438 L391.367188,304.828125 C391.424479,304.942709 391.453125,305.143228 391.453125,305.429688 C393.0573,303.882805 395.234361,303.109375 397.984375,303.109375 C401.020849,303.109375 403.398429,303.882805 405.117188,305.429688 C406.835946,306.97657 407.695312,309.239568 407.695312,312.21875 L407.695312,327.859375 C407.695312,328.145835 407.595053,328.374999 407.394531,328.546875 C407.194009,328.718751 406.979168,328.804688 406.75,328.804688 L400.046875,328.804688 C399.817707,328.804688 399.602866,328.718751 399.402344,328.546875 C399.201822,328.374999 399.101562,328.145835 399.101562,327.859375 L399.101562,313.765625 Z M379.851562,296.664062 C379.851562,297.867194 379.421879,298.912756 378.5625,299.800781 C377.703121,300.688807 376.657558,301.132812 375.425781,301.132812 C374.194004,301.132812 373.148442,300.688807 372.289062,299.800781 C371.429683,298.912756 371,297.852871 371,296.621094 C371,295.389317 371.429683,294.343754 372.289062,293.484375 C373.148442,292.624996 374.194004,292.195312 375.425781,292.195312 C376.657558,292.195312 377.703121,292.624996 378.5625,293.484375 C379.421879,294.343754 379.851562,295.40364 379.851562,296.664062 Z M379.679688,304.65625 L379.679688,327.859375 C379.679688,328.145835 379.579428,328.374999 379.378906,328.546875 C379.178384,328.718751 378.963543,328.804688 378.734375,328.804688 L372.203125,328.804688 C371.916665,328.804688 371.687501,328.718751 371.515625,328.546875 C371.343749,328.374999 371.257812,328.145835 371.257812,327.859375 L371.257812,304.65625 C371.257812,304.427082 371.343749,304.212241 371.515625,304.011719 C371.687501,303.811197 371.916665,303.710938 372.203125,303.710938 L378.734375,303.710938 C378.963543,303.710938 379.178384,303.811197 379.378906,304.011719 C379.579428,304.212241 379.679688,304.427082 379.679688,304.65625 Z" ></path>
                </g>
            </g>
        </g>
    </g>
</svg>